<svg width="573" height="372" viewBox="0 0 573 372" fill="none" xmlns="http://www.w3.org/2000/svg">
<g opacity="0.2">
<path d="M208.395 22.0649C208.395 33.6875 210.684 45.1962 215.132 55.9341C219.58 66.6719 226.099 76.4286 234.317 84.647C242.536 92.8654 252.292 99.3846 263.03 103.832C273.768 108.28 285.277 110.569 296.899 110.569C308.522 110.569 320.031 108.28 330.768 103.832C341.506 99.3846 351.263 92.8654 359.481 84.647C367.7 76.4286 374.219 66.6719 378.667 55.9341C383.114 45.1962 385.404 33.6875 385.404 22.0649L208.395 22.0649Z" fill="white"/>
<path d="M207.599 168.265C207.599 181.897 204.914 195.394 199.698 207.988C194.481 220.581 186.835 232.024 177.197 241.663C167.558 251.301 156.115 258.947 143.522 264.164C130.928 269.38 117.431 272.065 103.799 272.065C90.1683 272.065 76.6706 269.38 64.0771 264.164C51.4836 258.947 40.0408 251.301 30.4021 241.663C20.7635 232.024 13.1177 220.581 7.90126 207.988C2.68485 195.394 -4.27903e-06 181.897 0 168.265L207.599 168.265Z" fill="white"/>
<path d="M385.379 110.09V287.73H207.737L207.737 110.09L385.379 110.09Z" fill="white"/>
<path d="M198.618 361.938L298.063 265.216L385.282 175.275V361.939L198.618 361.938Z" fill="white"/>
<path d="M478.517 371.583C427.154 371.583 385.517 329.945 385.517 278.583C385.517 227.221 427.154 185.583 478.517 185.583C529.879 185.583 571.517 227.221 571.517 278.583C571.517 329.945 529.879 371.583 478.517 371.583Z" fill="white"/>
<path d="M572.038 8.15943e-06V186.664L385.372 186.664L385.372 0L572.038 8.15943e-06Z" fill="white"/>
<path d="M550.117 21.0772L462.366 106.426L385.403 185.791V21.0772L550.117 21.0772Z" fill="white"/>
</g>
</svg>
