<svg width="175" height="56" viewBox="0 0 175 56" fill="none" xmlns="http://www.w3.org/2000/svg">
<g clip-path="url(#clip0_2014_51)">
<path d="M13.8852 14.0849H0V28.0081H13.8852V14.0849Z" fill="#E30613"/>
<path d="M34.8097 14.0849V0H20.9245V14.0849V28.0081V41.7049H34.8097V28.0081H55.7504V14.0849H34.8097Z" fill="#E30613"/>
<path d="M55.7504 41.7049H34.8178V55.6281H55.7504V41.7049Z" fill="#E30613"/>
<path d="M68.3938 28.0485C68.3938 28.0485 68.6679 31.2827 71.3289 31.2827H75.0783V28.2992H72.8125C71.9417 28.2992 71.7643 27.7332 71.7643 26.7548C71.7643 26.2778 71.7643 23.1811 71.7643 20.0762H74.9896L75.5702 17.2221H71.724V13.3734L68.3938 13.9313V17.2221H66.3215V20.0762H68.3938V28.0485Z" fill="white"/>
<path d="M81.8435 22.5746C82.2467 22.138 83.2788 21.3618 85.8752 20.2541V16.9391C84.4622 17.4412 83.0923 18.0577 81.779 18.7826V17.2221H78.4408V31.2827H81.8032C81.8596 30.6925 81.8516 26.302 81.8435 22.5746Z" fill="white"/>
<path d="M91.6406 41.6564V55.6847H95.003C95.003 54.6982 95.003 41.6564 95.003 41.6564H91.6406Z" fill="white"/>
<path d="M155.849 41.6564V55.6847H159.204C159.204 54.6982 159.204 41.6564 159.204 41.6564H155.849Z" fill="white"/>
<path d="M148.084 36.0289V55.6847H151.447C151.447 54.3101 151.447 35.4225 151.447 35.4225L148.084 36.0289Z" fill="white"/>
<path d="M91.6406 35.7378V39.4329H95.003C95.003 39.1741 95.003 35.7378 95.003 35.7378H91.6406Z" fill="white"/>
<path d="M87.5766 44.8906V44.2922C87.5954 43.8919 87.53 43.4922 87.3846 43.1189C87.2392 42.7457 87.017 42.4073 86.7325 42.1259C86.448 41.8444 86.1076 41.6262 85.7335 41.4854C85.3593 41.3446 84.9598 41.2844 84.5609 41.3087C82.6352 41.4537 80.7482 41.9268 78.981 42.7075C78.981 42.7075 78.4488 41.2925 76.2153 41.2925C74.8364 41.2925 72.6996 42.1011 71.2563 42.7722V41.6564H67.918V55.6847H71.2805C71.2805 55.0944 71.2805 50.1623 71.2805 46.3055C71.8998 45.7927 72.6076 45.3981 73.3689 45.1412C74.9816 44.5105 76.0863 44.8744 76.0863 45.3595V55.6847H79.4487C79.4487 54.9246 79.4487 48.9656 79.4487 46.2489C80.5248 45.3708 81.8339 44.8283 83.2143 44.6884C84.0932 44.5671 84.2545 45.3676 84.2787 45.8042V55.6847H87.633C87.633 54.6982 87.633 44.8906 87.633 44.8906H87.5766Z" fill="white"/>
<path d="M141.303 41.6564H137.973V55.6847H141.335C141.335 55.1268 141.335 50.7283 141.335 47.0089C141.738 46.5723 142.771 45.7961 145.367 44.6884V41.3653C143.953 41.8682 142.583 42.4875 141.271 43.2169L141.303 41.6564Z" fill="white"/>
<path d="M99.5669 27.4178L96.3012 26.7872V27.3612C96.3012 27.6036 96.2052 27.836 96.0343 28.0073C95.8635 28.1786 95.6317 28.2749 95.39 28.2749H92.5759C92.3349 28.2728 92.1044 28.1759 91.934 28.005C91.7635 27.8341 91.6669 27.6029 91.6648 27.3612V25.0892H99.5669V20.2379C99.5669 19.4309 99.2477 18.6568 98.6794 18.0854C98.111 17.514 97.3399 17.1919 96.535 17.1897H91.439C90.6327 17.1897 89.8595 17.5109 89.2894 18.0825C88.7193 18.6542 88.3991 19.4295 88.3991 20.2379V28.1698C88.3991 28.9782 88.7193 29.7536 89.2894 30.3252C89.8595 30.8969 90.6327 31.218 91.439 31.218H96.535C97.3399 31.2159 98.111 30.8938 98.6794 30.3224C99.2477 29.7509 99.5669 28.9768 99.5669 28.1698V27.4178ZM92.5759 20.1409H95.39C95.6317 20.1409 95.8635 20.2372 96.0343 20.4085C96.2052 20.5799 96.3012 20.8123 96.3012 21.0546V22.3887H91.6648V21.0627C91.6669 20.821 91.7635 20.5898 91.934 20.4189C92.1044 20.2481 92.3349 20.1511 92.5759 20.149V20.1409Z" fill="white"/>
<path d="M105.913 31.2342H110.888C111.705 31.2342 112.488 30.9088 113.066 30.3295C113.644 29.7503 113.968 28.9647 113.968 28.1455V26.2859C113.926 25.7641 113.744 25.2633 113.442 24.8364C113.139 24.4095 112.728 24.0723 112.251 23.8602C111.743 23.5828 111.201 23.3761 110.638 23.2457C110.638 23.2457 107.259 22.2997 106.445 22.0087C106.211 21.9278 106.114 21.6852 106.098 21.3861V21.1193C106.098 21.1193 106.098 21.0546 106.098 21.0222C106.107 20.7684 106.213 20.5278 106.395 20.3513C106.577 20.1747 106.821 20.0761 107.074 20.0762H109.646C109.775 20.0752 109.903 20.0997 110.022 20.1484C110.141 20.1971 110.25 20.269 110.341 20.3599C110.433 20.4509 110.505 20.5591 110.555 20.6783C110.604 20.7975 110.63 20.9254 110.63 21.0546V21.6852L113.928 21.0222V20.2865C113.928 19.4666 113.604 18.6801 113.026 18.0996C112.449 17.5191 111.665 17.1919 110.848 17.1897H105.872C105.055 17.1919 104.271 17.5191 103.694 18.0996C103.117 18.6801 102.792 19.4666 102.792 20.2865V21.9925C102.826 22.5458 103.015 23.0784 103.335 23.53C103.656 23.9816 104.096 24.3341 104.607 24.5475C105.073 24.8081 105.572 25.0065 106.09 25.1377C106.09 25.1377 108.872 25.9463 110.025 26.2131C110.549 26.3506 110.662 26.8842 110.622 27.4259C110.613 27.6798 110.507 27.9204 110.325 28.0969C110.143 28.2734 109.899 28.3721 109.646 28.3719H107.074C106.813 28.3719 106.563 28.268 106.378 28.083C106.194 27.898 106.09 27.6471 106.09 27.3855V26.7468L102.792 27.4098V28.1617C102.794 28.5694 102.877 28.9726 103.035 29.3481C103.193 29.7236 103.424 30.064 103.714 30.3497C104.004 30.6353 104.348 30.8605 104.725 31.0123C105.103 31.1641 105.506 31.2395 105.913 31.2342Z" fill="white"/>
<path d="M118.822 44.8906V44.2922C118.841 43.8919 118.776 43.4922 118.63 43.1189C118.485 42.7457 118.263 42.4073 117.978 42.1259C117.694 41.8444 117.353 41.6262 116.979 41.4854C116.605 41.3446 116.205 41.2844 115.807 41.3087C113.881 41.4537 111.994 41.9268 110.227 42.7075C110.227 42.7075 109.695 41.2925 107.461 41.2925C106.082 41.2925 103.945 42.1011 102.502 42.7722V41.6564H99.1637V55.6847H102.494C102.494 55.0944 102.494 50.1623 102.494 46.3055C103.113 45.7927 103.821 45.3981 104.582 45.1412C106.195 44.5105 107.3 44.8744 107.3 45.3595V55.6847H110.662C110.662 54.9246 110.662 48.9656 110.662 46.2489C111.738 45.3708 113.047 44.8283 114.428 44.6884C115.307 44.5671 115.468 45.3676 115.492 45.8042V55.6847H118.846C118.846 54.6982 118.846 44.8906 118.846 44.8906H118.822Z" fill="white"/>
<path d="M175 55.6847L170.355 48.6746L174.677 41.6806H170.936L166.832 48.149C166.832 42.3679 166.832 35.4063 166.832 35.4063L163.502 36.0127V55.6847H166.856C166.856 55.1753 166.856 52.2968 166.856 48.8686L171.121 55.6847H175Z" fill="white"/>
<path d="M130.885 41.6321H125.966C125.182 41.6321 124.429 41.9447 123.874 42.5012C123.319 43.0577 123.007 43.8125 123.007 44.5995V45.5536L126.16 45.8851V45.6748C126.16 45.5298 126.189 45.3861 126.244 45.2522C126.3 45.1182 126.381 44.9966 126.484 44.8944C126.587 44.7922 126.709 44.7114 126.843 44.6566C126.977 44.6018 127.12 44.5742 127.265 44.5752H129.385C129.676 44.5752 129.955 44.6911 130.161 44.8973C130.366 45.1035 130.482 45.3832 130.482 45.6748V48.1005C129.944 47.9 129.387 47.7511 128.821 47.6558C127.675 47.3845 126.498 47.2676 125.321 47.3081C124.713 47.3439 124.131 47.5664 123.654 47.9454C123.176 48.3244 122.827 48.8415 122.652 49.4265C122.506 50.1362 122.455 50.8621 122.499 51.5853C122.475 52.3958 122.516 53.2069 122.62 54.011C122.798 55.0378 123.878 56.0081 125.62 56.0081C127.157 55.9689 128.676 55.6653 130.111 55.1106C130.263 55.0478 130.4 54.9542 130.514 54.8357V55.6442H133.869V44.5995C133.869 44.2077 133.791 43.8199 133.641 43.4583C133.491 43.0967 133.271 42.7685 132.993 42.4926C132.716 42.2167 132.387 41.9987 132.025 41.851C131.663 41.7033 131.276 41.6289 130.885 41.6321ZM130.482 51.9653C130.371 52.0884 130.24 52.1922 130.095 52.2726C129.264 52.5765 128.412 52.8223 127.547 53.0084C126.934 53.1539 125.733 53.2752 125.733 51.6015C125.733 49.9278 127.095 50.1461 127.095 50.1461C129.442 50.3402 130.224 50.6393 130.482 50.8253V51.9653Z" fill="white"/>
</g>
<defs>
<clipPath id="clip0_2014_51">
<rect width="175" height="56" fill="white"/>
</clipPath>
</defs>
</svg>
