<svg id="Layer_4" data-name="Layer 4" xmlns="http://www.w3.org/2000/svg" viewBox="0 0 217.03 69.26"><defs><style>.cls-1{fill:#e30613;}</style></defs><title>TRES LOGO</title><rect class="cls-1" y="17.42" width="17.22" height="17.22"/><polygon class="cls-1" points="43.17 17.42 43.17 0 25.95 0 25.95 17.42 25.95 34.64 25.95 51.58 43.17 51.58 43.17 34.64 69.14 34.64 69.14 17.42 43.17 17.42"/><rect class="cls-1" x="43.18" y="51.58" width="25.96" height="17.22"/><path d="M97.71,51S98.05,55,101.35,55H106V51.31h-2.81c-1.08,0-1.3-.7-1.3-1.91,0-.59,0-4.42,0-8.26h4l.72-3.53h-4.77V32.85l-4.13.69v4.07H95.14v3.53h2.57Z" transform="translate(-12.89 -16.31)"/><path d="M114.39,44.23c.5-.54,1.78-1.5,5-2.87l0-4.1a34.28,34.28,0,0,0-5.08,2.28V37.61h-4.14V55h4.17C114.41,54.27,114.4,48.84,114.39,44.23Z" transform="translate(-12.89 -16.31)"/><path d="M126.54,67.83V85.18h4.17c0-1.22,0-17.35,0-17.35Z" transform="translate(-12.89 -16.31)"/><path d="M206.17,67.83V85.18h4.16c0-1.22,0-17.35,0-17.35Z" transform="translate(-12.89 -16.31)"/><path d="M196.54,60.87V85.18h4.17c0-1.7,0-25.06,0-25.06Z" transform="translate(-12.89 -16.31)"/><path d="M126.54,60.51v4.57h4.17c0-.32,0-4.57,0-4.57Z" transform="translate(-12.89 -16.31)"/><path d="M121.5,71.83v-.74a3.53,3.53,0,0,0-3.74-3.69,21.08,21.08,0,0,0-6.92,1.73s-.66-1.75-3.43-1.75c-1.71,0-4.36,1-6.15,1.83V67.83H97.12V85.18h4.17c0-.73,0-6.83,0-11.6a8.15,8.15,0,0,1,2.59-1.44c2-.78,3.37-.33,3.37.27a0,0,0,0,0,0,0V85.18h4.17c0-.94,0-8.31,0-11.67a8.8,8.8,0,0,1,4.67-1.93c1.09-.15,1.29.84,1.32,1.38V85.18h4.16c0-1.22,0-13.35,0-13.35Z" transform="translate(-12.89 -16.31)"/><path d="M188.13,67.83H184V85.18h4.17c0-.69,0-6.13,0-10.73.5-.54,1.78-1.5,5-2.87l0-4.11a33.74,33.74,0,0,0-5.08,2.29Z" transform="translate(-12.89 -16.31)"/><path d="M136.37,50.22l-4.05-.78v.71a1.13,1.13,0,0,1-1.13,1.13H127.7a1.14,1.14,0,0,1-1.13-1.13V47.34h9.8v-6a3.77,3.77,0,0,0-3.76-3.77h-6.32a3.77,3.77,0,0,0-3.77,3.77v9.81a3.77,3.77,0,0,0,3.77,3.77h6.32a3.77,3.77,0,0,0,3.76-3.77Zm-8.67-9h3.49a1.13,1.13,0,0,1,1.13,1.13V44h-5.75V42.36A1.14,1.14,0,0,1,127.7,41.23Z" transform="translate(-12.89 -16.31)"/><path d="M144.24,54.94h6.17a3.82,3.82,0,0,0,3.82-3.82v-2.3a3.6,3.6,0,0,0-2.13-3,7.88,7.88,0,0,0-2-.76s-4.19-1.17-5.2-1.53c-.29-.1-.41-.4-.43-.77v-.33s0-.08,0-.12a1.21,1.21,0,0,1,1.21-1.17h3.19a1.21,1.21,0,0,1,1.22,1.21v.78l4.09-.82v-.91a3.83,3.83,0,0,0-3.82-3.83h-6.17a3.83,3.83,0,0,0-3.82,3.83v2.11a3.67,3.67,0,0,0,2.25,3.16,7.62,7.62,0,0,0,1.84.73s3.45,1,4.88,1.33c.65.17.79.83.74,1.5a1.21,1.21,0,0,1-1.21,1.17h-3.19a1.22,1.22,0,0,1-1.22-1.22v-.79l-4.09.82v.93A3.82,3.82,0,0,0,144.24,54.94Z" transform="translate(-12.89 -16.31)"/><path d="M160.25,71.83v-.74a3.53,3.53,0,0,0-3.74-3.69,21.08,21.08,0,0,0-6.92,1.73s-.66-1.75-3.43-1.75c-1.71,0-4.36,1-6.15,1.83V67.83h-4.14V85.18H140c0-.73,0-6.83,0-11.6a8.15,8.15,0,0,1,2.59-1.44c2-.78,3.37-.33,3.37.27a0,0,0,0,0,0,0V85.18h4.17c0-.94,0-8.31,0-11.67a8.8,8.8,0,0,1,4.67-1.93c1.09-.15,1.29.84,1.32,1.38V85.18h4.16c0-1.22,0-13.35,0-13.35Z" transform="translate(-12.89 -16.31)"/><path d="M229.92,85.18l-5.76-8.67,5.36-8.65h-4.64l-5.09,8c0-7.15,0-15.76,0-15.76l-4.13.75V85.18h4.16c0-.63,0-4.19,0-8.43l5.29,8.43Z" transform="translate(-12.89 -16.31)"/><path d="M175.21,67.8h-6.1a3.67,3.67,0,0,0-3.67,3.67v1.18l3.91.41V72.8a1.36,1.36,0,0,1,1.37-1.36h2.63a1.36,1.36,0,0,1,1.36,1.36v3a11.29,11.29,0,0,0-2.06-.55,16.43,16.43,0,0,0-4.34-.43A3.68,3.68,0,0,0,165,77.44a10.13,10.13,0,0,0-.19,2.67,18.85,18.85,0,0,0,.15,3h0c.22,1.27,1.56,2.47,3.72,2.47a16.66,16.66,0,0,0,5.57-1.11,1.48,1.48,0,0,0,.5-.34v1h0v0h4.16V71.47A3.67,3.67,0,0,0,175.21,67.8Zm-.5,12.78a1.87,1.87,0,0,1-.48.38,23.8,23.8,0,0,1-3.16.91c-.76.18-2.25.33-2.25-1.74s1.69-1.8,1.69-1.8c2.91.24,3.88.61,4.2.84Z" transform="translate(-12.89 -16.31)"/></svg>